<?xml version="1.0" standalone="no"?>
<!DOCTYPE svg PUBLIC "-//W3C//DTD SVG 20010904//EN"
 "http://www.w3.org/TR/2001/REC-SVG-20010904/DTD/svg10.dtd">
<svg version="1.0" xmlns="http://www.w3.org/2000/svg"
 width="244.000000pt" height="232.000000pt" viewBox="0 0 244.000000 232.000000"
 preserveAspectRatio="xMidYMid meet">

<g transform="translate(0.000000,232.000000) scale(0.100000,-0.100000)"
fill="#000000" stroke="none">
<path d="M443 2095 c-13 -13 -23 -31 -23 -40 0 -8 -4 -15 -10 -15 -5 0 -10 -9
-10 -20 0 -11 -4 -20 -10 -20 -5 0 -10 -9 -10 -20 0 -11 -4 -20 -10 -20 -5 0
-10 -9 -10 -20 0 -11 -4 -20 -10 -20 -5 0 -10 -9 -10 -20 0 -11 -4 -20 -10
-20 -5 0 -10 -13 -10 -30 0 -16 -4 -30 -10 -30 -5 0 -10 -13 -10 -30 0 -16 -4
-30 -10 -30 -5 0 -10 -22 -10 -50 0 -27 -4 -50 -10 -50 -5 0 -10 -22 -10 -50
0 -27 -4 -50 -10 -50 -6 0 -10 -37 -10 -90 0 -53 -4 -90 -10 -90 -6 0 -10 -50
-10 -130 0 -80 4 -130 10 -130 6 0 10 -37 10 -90 0 -53 4 -90 10 -90 6 0 10
-22 10 -50 0 -27 5 -50 10 -50 6 0 10 -18 10 -40 0 -22 5 -40 10 -40 6 0 10
-9 10 -20 0 -11 5 -20 10 -20 6 0 10 -13 10 -30 0 -16 5 -30 10 -30 6 0 10 -9
10 -20 0 -11 5 -20 10 -20 6 0 10 -8 10 -18 0 -10 9 -24 20 -32 11 -8 20 -20
20 -27 0 -17 206 -223 223 -223 7 0 19 -9 27 -20 8 -11 22 -20 32 -20 10 0 18
-4 18 -10 0 -5 9 -10 20 -10 11 0 20 -4 20 -10 0 -5 9 -10 20 -10 11 0 20 -4
20 -10 0 -5 14 -10 30 -10 17 0 30 -4 30 -10 0 -5 14 -10 30 -10 17 0 30 -4
30 -10 0 -5 14 -10 30 -10 17 0 30 -4 30 -10 0 -6 27 -10 60 -10 33 0 60 -4
60 -10 0 -6 67 -10 180 -10 113 0 180 4 180 10 0 6 27 10 60 10 33 0 60 4 60
10 0 6 14 10 30 10 17 0 30 5 30 10 0 6 14 10 30 10 17 0 30 5 30 10 0 6 14
10 30 10 17 0 30 5 30 10 0 6 9 10 20 10 11 0 20 5 20 10 0 6 9 10 20 10 11 0
20 5 20 10 0 6 8 10 18 10 10 0 24 9 32 20 8 11 20 20 27 20 17 0 183 166 183
183 0 7 9 19 20 27 11 8 20 22 20 32 0 10 5 18 10 18 6 0 10 9 10 20 0 11 5
20 10 20 6 0 10 9 10 20 0 11 5 20 10 20 6 0 10 9 10 20 0 11 5 20 10 20 6 0
10 14 10 30 0 17 5 30 10 30 6 0 10 18 10 40 0 22 5 40 10 40 6 0 10 27 10 60
0 33 4 60 10 60 6 0 10 40 10 100 0 60 4 100 10 100 6 0 10 40 10 100 0 60 -4
100 -10 100 -6 0 -10 43 -10 110 0 67 -4 110 -10 110 -5 0 -10 23 -10 50 0 28
-4 50 -10 50 -5 0 -10 18 -10 40 0 22 -4 40 -10 40 -5 0 -10 14 -10 30 0 17
-4 30 -10 30 -5 0 -10 14 -10 30 0 17 -4 30 -10 30 -5 0 -10 9 -10 20 0 11 -4
20 -10 20 -5 0 -10 9 -10 20 0 11 -4 20 -10 20 -5 0 -10 9 -10 20 0 11 -4 20
-10 20 -5 0 -10 9 -10 20 0 11 -4 20 -10 20 -5 0 -10 7 -10 15 0 27 -47 65
-80 65 -25 0 -50 -20 -155 -125 -69 -69 -125 -130 -125 -135 0 -16 -47 -60
-65 -60 -8 0 -15 5 -15 10 0 6 -13 10 -30 10 -16 0 -30 5 -30 10 0 6 -13 10
-30 10 -16 0 -30 5 -30 10 0 6 -27 10 -60 10 -33 0 -60 4 -60 10 0 6 -47 10
-120 10 -73 0 -120 -4 -120 -10 0 -6 -33 -10 -80 -10 -47 0 -80 -4 -80 -10 0
-5 -18 -10 -40 -10 -22 0 -40 -4 -40 -10 0 -5 -13 -10 -30 -10 -16 0 -30 -4
-30 -10 0 -5 -7 -10 -15 -10 -18 0 -65 44 -65 60 0 5 -56 66 -125 135 -110
110 -129 125 -157 124 -21 0 -41 -9 -55 -24z m162 -210 c52 -52 95 -100 95
-106 0 -6 14 -24 30 -39 17 -15 30 -35 30 -44 0 -13 11 -16 50 -16 28 0 50 5
50 10 0 6 14 10 30 10 17 0 30 5 30 10 0 6 14 10 30 10 17 0 30 5 30 10 0 6
27 10 60 10 33 0 60 4 60 10 0 6 60 10 160 10 100 0 160 -4 160 -10 0 -5 23
-10 50 -10 28 0 50 -4 50 -10 0 -5 14 -10 30 -10 17 0 30 -4 30 -10 0 -5 9
-10 20 -10 11 0 20 -4 20 -10 0 -5 20 -10 45 -10 39 0 51 5 80 35 19 19 35 39
35 45 0 10 205 220 215 220 3 0 5 -8 5 -18 0 -10 9 -24 20 -32 12 -8 20 -26
20 -42 0 -15 5 -28 10 -28 6 0 10 -13 10 -30 0 -16 5 -30 10 -30 6 0 10 -9 10
-20 0 -11 5 -20 10 -20 6 0 10 -18 10 -40 0 -22 5 -40 10 -40 6 0 10 -22 10
-50 0 -27 5 -50 10 -50 6 0 10 -30 10 -70 0 -40 4 -70 10 -70 6 0 10 -60 10
-160 0 -100 -4 -160 -10 -160 -6 0 -10 -40 -10 -100 0 -60 -4 -100 -10 -100
-5 0 -10 -18 -10 -40 0 -22 -4 -40 -10 -40 -5 0 -10 -13 -10 -30 0 -16 -4 -30
-10 -30 -5 0 -10 -13 -10 -30 0 -16 -4 -30 -10 -30 -5 0 -10 -9 -10 -20 0 -11
-4 -20 -10 -20 -5 0 -10 -9 -10 -20 0 -11 -4 -20 -10 -20 -5 0 -10 -8 -10 -18
0 -10 -9 -24 -20 -32 -11 -8 -20 -20 -20 -27 0 -17 -126 -143 -143 -143 -7 0
-19 -9 -27 -20 -8 -11 -22 -20 -32 -20 -10 0 -18 -4 -18 -10 0 -5 -9 -10 -20
-10 -11 0 -20 -4 -20 -10 0 -5 -9 -10 -20 -10 -11 0 -20 -4 -20 -10 0 -5 -13
-10 -30 -10 -16 0 -30 -4 -30 -10 0 -5 -13 -10 -30 -10 -16 0 -30 -4 -30 -10
0 -5 -22 -10 -50 -10 -27 0 -50 -4 -50 -10 0 -6 -73 -10 -200 -10 -127 0 -200
4 -200 10 0 6 -22 10 -50 10 -27 0 -50 5 -50 10 0 6 -13 10 -30 10 -16 0 -30
5 -30 10 0 6 -13 10 -30 10 -16 0 -30 5 -30 10 0 6 -9 10 -20 10 -11 0 -20 5
-20 10 0 6 -9 10 -20 10 -11 0 -20 5 -20 10 0 6 -8 10 -18 10 -10 0 -24 9 -32
20 -8 11 -20 20 -27 20 -17 0 -183 166 -183 183 0 7 -9 19 -20 27 -11 8 -20
22 -20 32 0 10 -4 18 -10 18 -5 0 -10 9 -10 20 0 11 -4 20 -10 20 -5 0 -10 14
-10 30 0 17 -4 30 -10 30 -5 0 -10 14 -10 30 0 17 -4 30 -10 30 -5 0 -10 18
-10 40 0 22 -4 40 -10 40 -6 0 -10 33 -10 80 0 47 -4 80 -10 80 -6 0 -10 67
-10 180 0 113 4 180 10 180 6 0 10 30 10 70 0 40 4 70 10 70 6 0 10 23 10 50
0 28 5 50 10 50 6 0 10 14 10 30 0 17 5 30 10 30 6 0 10 14 10 30 0 17 5 30
10 30 6 0 10 14 10 30 0 17 5 30 10 30 6 0 10 13 10 28 0 16 8 34 20 42 11 8
20 22 20 32 0 10 2 18 5 18 3 0 48 -43 100 -95z"/>
<path d="M693 1265 c-20 -20 -33 -45 -33 -60 0 -14 -4 -25 -10 -25 -5 0 -10
-9 -10 -20 0 -11 5 -20 10 -20 6 0 10 -11 10 -25 0 -29 40 -75 65 -75 8 0 15
-4 15 -10 0 -5 22 -10 48 -10 36 0 51 5 62 20 8 11 22 20 32 20 11 0 18 7 18
20 0 11 5 20 10 20 6 0 10 27 10 60 0 33 -4 60 -10 60 -5 0 -10 7 -10 16 0 20
-24 44 -44 44 -9 0 -16 5 -16 10 0 6 -25 10 -57 9 -52 0 -61 -4 -90 -34z"/>
<path d="M1660 1290 c0 -5 -7 -10 -15 -10 -9 0 -27 -11 -40 -25 -21 -20 -25
-34 -25 -87 0 -52 4 -66 20 -78 11 -8 20 -22 20 -32 0 -13 8 -18 30 -18 17 0
30 -4 30 -10 0 -5 18 -10 40 -10 22 0 40 5 40 10 0 6 7 10 16 10 20 0 44 24
44 44 0 9 5 16 10 16 6 0 10 28 10 65 0 57 -3 69 -25 90 -13 14 -31 25 -40 25
-8 0 -15 5 -15 10 0 6 -22 10 -50 10 -27 0 -50 -4 -50 -10z"/>
<path d="M1103 995 c-13 -13 -23 -29 -23 -35 0 -6 23 -33 50 -60 42 -40 50
-55 50 -84 0 -20 -4 -36 -10 -36 -5 0 -10 -7 -10 -15 0 -9 -11 -27 -25 -40
-20 -21 -34 -25 -85 -25 -51 0 -65 4 -85 25 -14 13 -25 29 -25 35 0 14 -46 60
-60 60 -21 0 -60 -49 -60 -75 0 -14 5 -25 10 -25 6 0 10 -7 10 -15 0 -9 20
-36 45 -60 24 -25 51 -45 60 -45 8 0 15 -4 15 -10 0 -6 37 -10 90 -10 53 0 90
4 90 10 0 6 7 10 16 10 9 0 29 14 44 30 35 38 65 38 100 0 15 -16 35 -30 44
-30 9 0 16 -4 16 -10 0 -6 37 -10 90 -10 53 0 90 4 90 10 0 6 7 10 15 10 20 0
105 85 105 105 0 8 5 15 10 15 6 0 10 11 10 25 0 26 -39 75 -60 75 -14 0 -60
-46 -60 -60 0 -6 -11 -22 -25 -35 -20 -21 -34 -25 -85 -25 -56 0 -63 3 -95 35
-29 28 -35 42 -35 75 0 35 6 47 40 80 22 21 40 45 40 53 0 9 5 17 12 19 8 3 3
14 -14 31 -27 26 -30 27 -150 26 -117 0 -124 -1 -145 -24z"/>
</g>
</svg>
